<?xml version="1.0" encoding="UTF-8" standalone="no"?>
<svg
   aria-hidden="true"
   focusable="false"
   data-prefix="fas"
   data-icon="map-marked-alt"
   class="svg-inline--fa fa-map-marked-alt fa-w-18"
   role="img"
   viewBox="0 0 576 512"
   version="1.1"
   id="svg4"
   sodipodi:docname="map-marked-alt-solid.svg"
   inkscape:version="1.1 (c68e22c387, 2021-05-23)"
   xmlns:inkscape="http://www.inkscape.org/namespaces/inkscape"
   xmlns:sodipodi="http://sodipodi.sourceforge.net/DTD/sodipodi-0.dtd"
   xmlns="http://www.w3.org/2000/svg"
   xmlns:svg="http://www.w3.org/2000/svg">
  <defs
     id="defs8" />
  <sodipodi:namedview
     id="namedview6"
     pagecolor="#ffffff"
     bordercolor="#666666"
     borderopacity="1.0"
     inkscape:pageshadow="2"
     inkscape:pageopacity="0.0"
     inkscape:pagecheckerboard="0"
     showgrid="false"
     inkscape:zoom="1.4707031"
     inkscape:cx="287.9575"
     inkscape:cy="256"
     inkscape:window-width="1848"
     inkscape:window-height="1016"
     inkscape:window-x="72"
     inkscape:window-y="27"
     inkscape:window-maximized="1"
     inkscape:current-layer="svg4" />
  <path
     fill="currentColor"
     d="M288 0c-69.59 0-126 56.41-126 126 0 56.26 82.35 158.8 113.9 196.02 6.39 7.54 17.82 7.54 24.2 0C331.65 284.8 414 182.26 414 126 414 56.41 357.59 0 288 0zm0 168c-23.2 0-42-18.8-42-42s18.8-42 42-42 42 18.8 42 42-18.8 42-42 42zM20.12 215.95A32.006 32.006 0 0 0 0 245.66v250.32c0 11.32 11.43 19.06 21.94 14.86L160 448V214.92c-8.84-15.98-16.07-31.54-21.25-46.42L20.12 215.95zM288 359.67c-14.07 0-27.38-6.18-36.51-16.96-19.66-23.2-40.57-49.62-59.49-76.72v182l192 64V266c-18.92 27.09-39.82 53.52-59.49 76.72-9.13 10.77-22.44 16.95-36.51 16.95zm266.06-198.51L416 224v288l139.88-55.95A31.996 31.996 0 0 0 576 426.34V176.02c0-11.32-11.43-19.06-21.94-14.86z"
     id="path2" />
  <path
     style="fill:#000;stroke-width:13.7874"
     d="m 284.2134,326.75912 c -5.34303,-1.62528 -8.3844,-4.8467 -29.1099,-30.83322 -53.30089,-66.83096 -85.31541,-122.10324 -91.60084,-158.14659 -1.2775,-7.3257 -1.26797,-18.33924 0.0244,-28.19797 8.40229,-64.096287 65.05191,-111.7730139 129.53004,-109.0134209 24.95906,1.0682201 47.98849,9.0419286 68.67464,23.7779109 7.68708,5.475964 23.00633,20.968915 28.70453,29.03 4.98256,7.048692 11.47076,19.084518 14.74469,27.351876 6.96716,17.593578 9.99617,41.796874 7.21126,57.621674 -6.45959,36.70563 -40.10018,93.85247 -96.27512,163.54703 -15.66744,19.43811 -18.07536,22.05571 -21.94747,23.85863 -3.51049,1.63455 -6.79475,1.96576 -9.95623,1.00408 z m 11.94857,-159.21671 c 15.19426,-2.8036 28.01401,-14.65017 32.67346,-30.19314 1.94583,-6.49093 1.66247,-17.55231 -0.62708,-24.47809 -3.51094,-10.62046 -11.39192,-19.773268 -21.2667,-24.698722 -5.96733,-2.976447 -11.44398,-4.200501 -18.74232,-4.188969 -12.43249,0.01965 -21.2248,3.607118 -29.89789,12.199063 -8.50608,8.426508 -12.3958,17.714648 -12.3992,29.607618 -0.003,12.17627 3.8262,21.62755 12.12696,29.92831 6.04403,6.04402 14.98912,10.79298 22.78886,12.09863 3.50311,0.58641 11.44794,0.44417 15.34391,-0.2747 z"
     id="path83" />
  <path
     style="fill:#000;stroke-width:13.7874"
     d="M 11.025383,510.84156 C 7.5012467,509.65541 2.9779426,505.23786 1.5813512,501.61833 0.39512318,498.54399 0.33997344,492.66164 0.33997344,369.21116 V 240.02125 l 1.53285726,-4.02479 c 2.9459696,-7.73518 8.8840123,-14.88914 14.9103973,-17.96357 1.998238,-1.01943 86.627382,-35.0785 118.573922,-47.72019 l 3.10748,-1.22967 3.62013,9.25591 c 1.99107,5.09075 6.7896,15.59283 10.6634,23.33794 l 7.04326,14.08203 -0.17194,116.02493 -0.17194,116.02493 -69.67843,31.71246 c -74.055459,33.70456 -72.957505,33.26784 -78.743727,31.32033 z"
     id="path159" />
  <path
     style="fill:#000;stroke-width:13.7874"
     d="m 287.10757,479.25221 -94.6826,-31.62052 v -90.13773 -90.13774 l 5.48777,7.66604 c 19.46986,27.19807 50.03702,65.35593 58.46289,72.9809 10.61825,9.60897 26.49023,13.91429 40.78505,11.06307 3.57818,-0.7137 8.19941,-2.32521 12.21515,-4.25965 5.5397,-2.66854 7.33623,-3.99458 12.61658,-9.31235 9.62012,-9.68831 33.98355,-40.069 51.84221,-64.64616 4.63158,-6.37401 8.69879,-11.87978 9.03824,-12.23506 0.36971,-0.38695 0.61718,48.07293 0.61718,120.86056 0,96.78054 -0.17296,121.49558 -0.84993,121.45283 -0.46747,-0.0295 -43.45711,-14.28291 -95.53254,-31.67419 z"
     id="path198" />
  <path
     style="fill:#000;stroke-width:13.7874"
     d="M 416.12749,367.95518 V 224.38194 l 70.20452,-31.94695 c 66.27721,-30.15981 70.41372,-31.94395 73.94422,-31.89322 4.48751,0.0645 8.42046,1.89444 11.4243,5.31563 4.48296,5.10581 4.21569,-3.52094 4.20267,135.65246 -0.0128,137.12643 0.15093,131.0976 -3.77142,138.84486 -2.53241,5.0019 -5.81737,8.85226 -10.02439,11.74975 -2.39465,1.64925 -26.63873,11.68012 -74.76188,30.93235 l -71.21802,28.4916 z"
     id="path237" />
  <path
     style="fill:#000;stroke-width:13.7874"
     d="m 282.36484,325.60233 c -7.37862,-3.63789 -46.95802,-53.75705 -71.61106,-90.68068 -26.26654,-39.34021 -43.26416,-74.63171 -46.90803,-97.39332 -1.23674,-7.72534 -0.48956,-27.49123 1.3663,-36.14417 7.16295,-33.397236 26.2591,-61.455027 54.41079,-79.945235 12.34474,-8.108103 24.50457,-13.4140519 38.86418,-16.9584159 10.84688,-2.6773198 17.6393,-3.4634595 29.79262,-3.4481321 24.93352,0.031445 47.83773,6.9290666 68.68455,20.684413 11.53936,7.614008 27.2189,23.007173 34.32581,33.698881 4.16604,6.267427 10.27844,17.660416 12.92609,24.093142 6.42931,15.620678 9.73483,36.136827 8.46418,52.534187 -2.6893,34.70475 -36.89391,94.79609 -95.71474,168.15355 -15.24135,19.008 -19.20654,23.35591 -22.87092,25.07837 -3.65123,1.71628 -8.63085,1.85527 -11.72977,0.32741 z m 16.47547,-158.36492 c 6.69991,-1.74511 12.36598,-4.9781 17.93474,-10.23336 8.58163,-8.09851 12.82071,-16.84739 13.48833,-27.83804 0.86258,-14.20034 -4.52013,-27.09076 -14.92992,-35.753881 -8.15846,-6.789535 -15.76348,-9.444408 -27.00885,-9.42864 -13.50331,0.01897 -20.66533,2.92947 -30.02682,12.202415 -9.3615,9.272956 -12.50622,16.916676 -12.4593,30.284216 0.0442,12.59742 3.25121,20.29551 12.19171,29.26507 4.26843,4.28231 6.70158,6.08304 11.22876,8.31018 3.17876,1.56379 7.00346,3.12712 8.49934,3.47407 4.49446,1.04242 16.61987,0.88022 21.08201,-0.28203 z"
     id="path389" />
</svg>
